<svg xmlns="http://www.w3.org/2000/svg" width="102" height="25" viewBox="0 0 102 25" fill="none">
    <path d="M20.0449 10.4356H15.704C14.983 10.4356 14.3964 9.84967 14.3964 9.12956V6.04339C14.3964 5.82211 14.2161 5.642 13.9946 5.642H9.59766V5.2178C9.59766 2.34079 11.9411 0 14.8214 0C17.7018 0 20.0451 2.34079 20.0451 5.2178V10.4356H20.0449ZM10.4677 4.79361H13.9947C14.6848 4.79361 15.2461 5.35428 15.2461 6.04356V9.12956C15.2461 9.38184 15.4516 9.58705 15.7041 9.58705H19.1955V5.21797C19.1955 2.80878 17.2332 0.848883 14.8214 0.848883C12.5525 0.848719 10.682 2.58274 10.4677 4.79361Z" fill="#67B599"/>
    <path d="M19.6199 20.0224H14.3965V15.6864C14.3965 14.9663 14.9829 14.3804 15.704 14.3804H18.7936C19.0151 14.3804 19.1953 14.2004 19.1953 13.979V9.58691H19.6201C22.5006 9.58691 24.8439 11.9277 24.8439 14.8047C24.8439 17.6817 22.5006 20.0224 19.6199 20.0224ZM15.246 19.1738H19.6201C22.0321 19.1738 23.9944 17.2139 23.9944 14.8047C23.9944 12.5386 22.2584 10.67 20.045 10.456V13.979C20.045 14.6682 19.4835 15.2289 18.7936 15.2289H15.704C15.4515 15.2289 15.246 15.4341 15.246 15.6864V19.1738Z" fill="#67B599"/>
    <path d="M5.64847 15.2289H5.22379C2.34331 15.2289 0 12.8883 0 10.0111C0 7.13408 2.34331 4.79346 5.22379 4.79346H10.4474V9.12941C10.4474 9.84952 9.86081 10.4355 9.13986 10.4355H6.05033C5.82879 10.4355 5.64847 10.6154 5.64847 10.8367V15.2289ZM5.22379 5.64218C2.81167 5.64218 0.849529 7.60207 0.849529 10.0113C0.849529 12.2774 2.58554 14.1461 4.79894 14.36V10.8369C4.79894 10.1477 5.36042 9.5869 6.05033 9.5869H9.13986C9.39244 9.5869 9.59788 9.38169 9.59788 9.12957V5.64218H5.22379Z" fill="#67B599"/>
    <path d="M10.0225 24.8158C7.14213 24.8158 4.79883 22.4752 4.79883 19.5981V14.3805H9.13975C9.86069 14.3805 10.4473 14.9663 10.4473 15.6865V18.7725C10.4473 18.9938 10.6275 19.1739 10.849 19.1739H15.2461V19.5981C15.2459 22.4752 12.9026 24.8158 10.0225 24.8158ZM5.64819 15.2289V19.5981C5.64819 22.0072 7.61034 23.9674 10.0223 23.9674C12.291 23.9674 14.1617 22.2332 14.376 20.0225H10.8488C10.1589 20.0225 9.59744 19.4618 9.59744 18.7725V15.6865C9.59744 15.4343 9.392 15.229 9.13959 15.229H5.64819V15.2289Z" fill="#67B599"/>
    <path d="M57.3641 1.55725C60.6572 1.55725 63.1928 2.68441 64.5935 4.82594C65.9563 2.68441 68.5305 1.55725 71.8608 1.55725C77.5766 1.55725 80.8697 4.48762 80.8697 9.33457V22.9726H79.8195C78.4344 22.9726 77.3121 21.858 77.3121 20.4832V9.78508C77.3121 6.44179 75.5705 4.67558 71.8608 4.67558C68.0381 4.67558 66.3345 6.36661 66.3345 9.70989V20.4027C66.3345 21.8216 65.1754 22.9726 63.7453 22.9726H62.8147V9.71049C62.8147 6.36721 61.0732 4.67617 57.3641 4.67617C53.5035 4.67617 51.8377 6.44239 51.8377 9.78567V20.9093C51.8377 22.0489 50.9065 22.9732 49.7583 22.9732H48.3174V9.33517C48.318 4.48822 51.6111 1.55725 57.3641 1.55725Z" fill="#606060"/>
    <path d="M93.1484 1.84277V4.98167C96.4788 5.03631 98.0768 6.06119 98.5155 8.1626C98.686 8.97794 99.4095 9.55312 100.232 9.55252L102 9.55012V8.64292C102 5.1822 99.0714 1.94304 93.1484 1.84277Z" fill="#606060"/>
    <path d="M93.1484 23.5442V20.4057C96.4788 20.351 98.0768 19.3255 98.5155 17.2245C98.686 16.4085 99.4095 15.8333 100.232 15.8345L102 15.8363V16.7436C102 20.2051 99.0714 23.4439 93.1484 23.5442Z" fill="#606060"/>
    <path d="M37.4668 23.5442V20.4057C40.9046 20.351 42.5541 19.3255 43.007 17.2245C43.183 16.4085 43.9298 15.8333 44.7787 15.8345L46.6043 15.8363V16.7436C46.6049 20.2051 43.5809 23.4439 37.4668 23.5442Z" fill="#606060"/>
    <path d="M92.618 20.4014C88.6056 20.4014 86.3553 18.6802 86.3553 15.3503V10.0368C86.3553 6.70683 88.6056 4.98568 92.618 4.98568C92.9924 4.98568 93.3829 4.95998 93.7189 4.98209L93.677 1.87325C93.3332 1.85353 92.9804 1.84277 92.618 1.84277C86.6176 1.84277 82.8682 4.76157 82.8682 9.58798V15.7991C82.8682 20.6261 86.6176 23.5443 92.618 23.5443C92.9924 23.5443 93.356 23.5329 93.7105 23.5108L93.677 20.4098C93.3302 20.4343 93.005 20.4014 92.618 20.4014Z" fill="#606060"/>
    <path d="M35.2957 11.1209C34.0502 11.1209 33.0407 12.1159 33.0407 13.3432V13.8894H44.802C45.797 13.8894 46.6041 13.0947 46.6041 12.1141V9.58703C46.6041 4.76061 42.8459 1.84277 36.7715 1.84277C30.6977 1.84277 26.9014 4.76061 26.9014 9.58703V15.7974C26.9014 20.6238 30.6977 23.5416 36.7715 23.5416C36.9607 23.5416 37.3548 23.5476 37.5385 23.5416V20.4182C37.3548 20.4254 36.9649 20.4368 36.7715 20.4368C32.7096 20.4368 30.4697 18.8276 30.4321 15.498V13.8894L30.4691 10.7475H30.4697V9.92405C30.4321 6.63155 32.7096 4.94765 36.7715 4.94765C40.8334 4.94765 43.0357 6.66859 43.0357 9.92405V10.7433C43.0357 10.9518 42.8635 11.1209 42.6525 11.1209H35.2957Z" fill="#606060"/>
</svg>